<svg
  xmlns="http://www.w3.org/2000/svg"
  viewBox="0 0 256 256"
  fill="currentColor"
>
  <g fill="currentColor">
    <path d="M255.47,127.74a127.2,127.2,0,0,0-127.2-127.2,127.2,127.2,0,0,0-127.2,127.2,127.2,127.2,0,0,0,127.2,127.2,127.2,127.2,0,0,0,127.2-127.2" />
  </g>
  <g fill="#FFF">
    <path d="M255.47,127.74a127.2,127.2,0,0,0-127.2-127.2,127.2,127.2,0,0,0-127.2,127.2,127.2,127.2,0,0,0,127.2,127.2,127.2,127.2,0,0,0,127.2-127.2" />
    <path d="M188.1,121.57a16.51,16.51,0,0,0-16.14-11.79,31.33,31.33,0,0,0-27.63-14.47c-1.39,0-2.83.1-4.24.28a63,63,0,0,0-40.35,0,3.61,3.61,0,0,0-3.32,2.83,3.53,3.53,0,0,0,2.15,4,55.51,55.51,0,0,1,34.4,0,3.52,3.52,0,0,0,2.37-1.39,23.3,23.3,0,0,1,20.89,10.15,16.48,16.48,0,0,0-16.14,11.79,16.29,16.29,0,0,0,0,32.58,16.51,16.51,0,0,0,16.14,11.78,16.32,16.32,0,0,0,16.15-11.78,16.29,16.29,0,0,0,0-32.58m-20.89,25.43a9.14,9.14,0,1,1,9.14-9.14,9.14,9.14,0,0,1-9.14,9.14" />
    <path d="M128.27,15.11a43.58,43.58,0,0,0-43,36.55,3.54,3.54,0,0,0,3.54,3.64h27.28l-8.42,24.58c-1.29,3.54-.38,7.39,2.47,9.65s6.87,2.57,9.93,1L150,71.49l-1-1.18L126,52.48l18.52-2.57a3.54,3.54,0,0,0,2.83-4.14A43.53,43.53,0,0,0,128.27,15.11" />
    <path d="M62.24,136.26A18.66,18.66,0,1,0,81,155,18.68,18.68,0,0,0,62.24,136.26M67.9,158.41a3.54,3.54,0,1,1-5.71-4.24,3.52,3.52,0,0,1,5.71,4.24" />
    <path d="M128.27,174.61a45.69,45.69,0,0,0,28.71-9.75,3.54,3.54,0,0,0-4.73-5.21,38.61,38.61,0,0,1-48,0,3.54,3.54,0,0,0-4.73,5.21,45.69,45.69,0,0,0,28.71,9.75" />
  </g>
</svg>
