<svg width="41" height="140" viewBox="0 0 41 140" fill="none" xmlns="http://www.w3.org/2000/svg">
<path d="M25.9927 133.329C14.5146 138.584 8.77551 141.211 4.63776 138.555C0.5 135.898 0.5 129.587 0.5 116.963L0.5 22.3556C0.5 10.0027 0.5 3.82623 4.5529 1.15943C8.60581 -1.50738 14.2781 0.936707 25.6228 5.82488L29.6228 7.54841C34.8988 9.82173 37.5368 10.9584 39.0184 13.2101C40.5 15.4618 40.5 18.3342 40.5 24.0792L40.5 115.132C40.5 120.744 40.5 123.55 39.0735 125.772C37.6471 127.994 35.0956 129.162 29.9927 131.498L25.9927 133.329Z" fill="#333333"/>
</svg>
