<svg width="41" height="140" viewBox="0 0 41 140" fill="none" xmlns="http://www.w3.org/2000/svg">
<path d="M15.0073 6.6708C26.4854 1.41601 32.2245 -1.21139 36.3622 1.44506C40.5 4.10152 40.5 10.4134 40.5 23.0372L40.5 117.644C40.5 129.997 40.5 136.174 36.4471 138.841C32.3942 141.507 26.7219 139.063 15.3772 134.175L11.3772 132.452C6.10122 130.178 3.46321 129.042 1.98161 126.79C0.499999 124.538 0.499999 121.666 0.499999 115.921L0.499999 24.8685C0.499999 19.2562 0.499999 16.4501 1.92645 14.2282C3.35291 12.0063 5.90437 10.8382 11.0073 8.50205L15.0073 6.6708Z" fill="#333333"/>
</svg>
